<svg xmlns="http://www.w3.org/2000/svg" viewBox="95 0 190 185" fill="currentColor">
  <path d="M126.2 95.6c0-0.5 0-1 0-1.5 0.1-29.4 17.8-55.9 44.8-67.3 2.3-1 4.7-1.8 7.1-2.5v-14c-0.5 0.1-1 0.2-1.5 0.3-44.7 10-76.7 49.9-76.7 95.8 0 4.1 0.3 8.2 0.8 12.2h25.8c-0.2-1.5-0.3-3-0.3-4.6v-18.4z"/>
  <path d="M178.1 10.4v14.5c1.6-0.2 3.2-0.4 4.9-0.4 37.2 0 67.6 30 68.1 67.1 0 0.3 0 0.5 0 0.8-0.5 28.6-18.9 53.8-45.2 63.4-3.3 1.2-6.7 2.1-10.2 2.6v14.4c0.7-0.1 1.4-0.2 2.1-0.3 44.5-7.2 77.8-45.5 79.4-91.3 0-0.5 0-1 0-1.5-1.3-53.8-45.6-96.7-99.1-96.7v27.4z"/>
  <path d="M178.1 39.2v22c22.1 2.1 39.4 20.5 39.4 43.1 0 0.5 0 1-0.1 1.5-1.6 20.5-17.7 37-38 39.7v22.1c35.1-2.8 62.6-32 62.6-67.6 0-0.8 0-1.6-0.1-2.4-2.1-33.7-30.3-60.5-63.8-60.5v2.1z"/>
  <path d="M178.1 75.4v33.3c6.8-1.9 11.8-8.2 11.8-15.6s-5-13.7-11.8-15.6v-2.1z"/>
  <path d="M150.7 92.1c0-9.3 4.7-17.5 11.8-22.4V47.5c-23.1 6.3-40.1 27.5-40.1 52.7 0 0.5 0 1 0.1 1.5 1.7 23.5 19.1 42.7 41.6 47v-22.5c-8.2-4.8-13.4-13.7-13.4-23.8v-10.3z"/>
</svg>
